<svg version="1.1" id="Layer_1" xmlns="http://www.w3.org/2000/svg" xmlns:xlink="http://www.w3.org/1999/xlink" x="0px" y="0px"
	 width="100%" viewBox="0 0 800 600" enable-background="new 0 0 800 600" xml:space="preserve">
<path fill="#000000" opacity="1.000000" stroke="none" 
	d="
M427.000000,601.000000 
	C284.666656,601.000000 142.833328,601.000000 1.000000,601.000000 
	C1.000000,401.000000 1.000000,201.000000 1.000000,1.000000 
	C267.666656,1.000000 534.333313,1.000000 801.000000,1.000000 
	C801.000000,201.000000 801.000000,401.000000 801.000000,601.000000 
	C676.500000,601.000000 552.000000,601.000000 427.000000,601.000000 
M213.464127,224.089233 
	C213.296265,224.385666 213.128403,224.682098 212.999329,225.001251 
	C212.999329,225.001251 212.972977,224.965103 212.349503,225.174805 
	C210.864441,226.766312 209.379379,228.357819 207.277191,230.200119 
	C194.663345,242.325027 183.915909,255.845169 175.894012,271.485931 
	C174.192383,274.803680 173.503235,277.299774 175.457214,281.098358 
	C184.280579,298.251434 186.945465,316.440582 181.966125,335.237579 
	C179.949158,342.851776 176.625748,350.119904 174.050278,357.127930 
	C203.700836,357.127930 233.962448,357.127930 265.142670,357.127930 
	C256.521881,344.374695 252.523956,330.901825 253.993958,315.122833 
	C249.662354,318.481445 246.319763,321.064667 242.986511,323.659882 
	C238.769485,326.943207 233.331268,329.628723 236.836502,336.666077 
	C236.988220,336.970673 235.302383,338.875336 234.454315,338.888824 
	C224.352966,339.049438 214.248154,338.992371 203.971344,338.992371 
	C203.971344,336.497162 203.521133,334.392456 204.043716,332.566132 
	C207.704788,319.771484 205.256668,307.157684 202.566391,294.720245 
	C201.620453,290.347137 203.156998,288.735474 206.136078,286.861115 
	C211.397171,283.550964 216.582733,280.120758 221.799896,276.740784 
	C221.688004,276.439819 221.576111,276.138855 221.464218,275.837860 
	C217.750793,276.103455 214.037369,276.369019 210.040848,276.654877 
	C217.134201,266.667450 227.861710,259.861084 231.899704,247.154068 
	C224.339508,250.701584 216.779327,254.249100 208.527176,258.121307 
	C210.586182,253.629639 212.310333,249.868439 214.544235,245.919052 
	C214.630463,245.607300 214.716690,245.295563 214.969391,244.550751 
	C214.969391,244.550751 215.021973,244.089783 215.541016,243.918808 
	C215.625473,243.606079 215.709930,243.293365 216.078262,242.346130 
	C216.733749,240.934708 217.389252,239.523285 218.676529,237.823776 
	C219.131561,236.556671 219.586594,235.289566 219.997787,234.002335 
	C219.997787,234.002335 220.027054,234.040955 220.620102,233.807083 
	C220.685028,233.200851 220.749954,232.594604 220.970871,231.555695 
	C220.970871,231.555695 221.025711,231.099045 221.548157,230.914169 
	C221.628403,230.595871 221.708664,230.277588 221.948563,229.525497 
	C221.948563,229.525497 222.000092,229.066132 222.587357,228.806747 
	C222.663239,228.199677 222.739120,227.592621 222.967484,226.546005 
	C222.967484,226.546005 223.013535,226.083069 223.522461,225.893875 
	C223.606155,225.580963 223.689850,225.268066 223.953522,224.355850 
	C223.980316,223.939651 224.007095,223.523468 224.554581,222.929169 
	C224.640121,222.613617 224.725647,222.298065 224.966721,221.348389 
	C225.000336,220.914856 225.033951,220.481339 225.741959,219.718445 
	C226.149628,217.890305 226.557297,216.062164 227.256012,212.928909 
	C224.367142,215.266418 222.673935,216.636475 220.372543,218.222580 
	C219.259720,219.226883 218.146881,220.231201 216.530685,221.146042 
	C216.362183,221.423187 216.193695,221.700333 215.982742,221.978561 
	C215.982742,221.978561 215.973969,222.020111 215.457001,222.099747 
	C215.292374,222.392746 215.127747,222.685745 215.000168,223.000763 
	C215.000168,223.000763 214.978409,222.963608 214.463791,223.090256 
	C214.296204,223.386658 214.128616,223.683060 214.000336,224.000824 
	C214.000336,224.000824 213.978821,223.961700 213.464127,224.089233 
M340.352478,238.017487 
	C339.871857,238.337250 339.391235,238.657013 338.453766,239.039062 
	C338.453766,239.039062 338.032898,239.227310 337.508911,239.131668 
	C337.318268,239.418274 337.127625,239.704865 336.470917,240.050156 
	C336.470917,240.050156 336.039551,240.236176 335.515198,240.131393 
	C335.318115,240.415939 335.121033,240.700500 334.266998,241.234818 
	C329.093414,245.968643 324.604767,245.249985 319.043640,240.964340 
	C311.675385,235.286041 302.670715,234.600372 293.753082,236.911911 
	C280.618469,240.316544 272.800812,251.250473 272.795807,265.050781 
	C272.790924,278.555786 281.046509,289.128571 291.561798,293.299591 
	C300.086487,296.681061 307.802948,301.625092 314.145325,308.530334 
	C320.895142,315.879150 320.923676,327.985840 313.000519,334.817017 
	C306.337006,340.562164 294.719391,340.343811 288.095520,333.800293 
	C280.821106,326.614105 279.518127,317.813446 280.773621,308.189056 
	C281.272095,304.367859 281.413361,300.500061 281.736847,296.405304 
	C279.897186,297.776459 278.239380,299.057251 276.536102,300.274384 
	C262.481415,310.317932 261.994965,310.348450 263.194855,327.382477 
	C263.954773,338.170929 268.015076,348.063843 278.055267,353.914948 
	C288.547211,360.029327 300.033600,361.574310 311.741180,358.797119 
	C335.258423,353.218536 342.205383,335.928436 339.612457,316.582520 
	C337.481476,300.683136 325.827332,291.067688 312.026001,284.133362 
	C305.838013,281.024323 298.669220,278.922058 295.184204,272.431610 
	C293.485352,269.267639 292.581787,264.618225 293.626007,261.387024 
	C294.409515,258.962524 298.699860,256.837097 301.756653,256.230774 
	C304.475006,255.691589 308.043854,256.768066 310.532227,258.286743 
	C316.054199,261.656952 321.134094,265.751526 327.271515,270.184418 
	C332.397766,261.691925 337.709625,252.891968 343.527710,243.898087 
	C343.611053,243.586212 343.694427,243.274353 343.954224,242.528091 
	C343.954224,242.528091 344.009399,242.062469 344.505188,241.879761 
	C344.589783,241.575623 344.674408,241.271484 344.954071,240.346252 
	C344.993652,239.914413 345.033234,239.482590 345.694427,238.781036 
	C346.067017,237.710342 346.439636,236.639648 347.104675,234.728683 
	C344.473541,236.118759 342.716492,237.047043 341.001862,237.999649 
	C341.001862,237.999649 340.985474,237.953552 340.352478,238.017487 
M399.979889,234.240540 
	C399.532379,232.594620 399.084839,230.948700 398.637329,229.302780 
	C398.359711,229.311218 398.082062,229.319641 397.804443,229.328079 
	C397.263031,234.549789 396.721649,239.771500 395.857178,245.733429 
	C394.250488,252.496979 392.994019,259.367645 390.964233,266.001770 
	C386.735321,279.823395 382.097321,293.519806 377.614410,307.307770 
	C371.695984,295.777618 366.470459,285.027130 360.630768,274.621277 
	C359.168915,272.016327 359.142059,270.471741 360.312744,268.022766 
	C363.829590,260.666016 367.075897,253.179993 370.427795,245.744400 
	C370.002136,245.470108 369.576447,245.195816 369.150787,244.921524 
	C354.842407,252.467819 344.170349,264.064392 334.180237,276.265228 
	C343.590942,287.220245 350.351532,299.015778 355.430634,311.806152 
	C362.030701,328.426544 364.276611,345.770020 362.765533,363.453033 
	C362.417725,367.523193 363.101166,369.393860 367.150726,371.423523 
	C373.378754,361.108948 380.071625,351.251801 385.473938,340.731873 
	C390.864502,330.234741 394.961975,319.073578 399.326843,308.901459 
	C401.343018,314.639862 403.494263,321.337433 406.036743,327.883026 
	C411.852112,342.854523 420.631287,356.157013 429.906677,369.137848 
	C430.553894,370.043610 432.547211,370.793457 433.496155,370.452332 
	C434.455200,370.107483 435.565460,368.247406 435.457489,367.166168 
	C434.202576,354.597900 434.203949,342.113373 436.981049,329.714050 
	C441.212128,310.822784 449.466888,293.872864 461.644043,278.863129 
	C463.795654,276.210999 463.019897,274.496094 460.943817,272.527100 
	C453.179626,265.163147 445.572845,257.628082 437.658630,250.430359 
	C435.086487,248.091049 431.754059,246.587677 428.539764,244.556870 
	C428.288330,245.635696 427.950592,246.202637 428.102875,246.561981 
	C431.067902,253.560089 433.848358,260.653992 437.222992,267.452057 
	C438.521484,270.067841 439.046844,271.873199 437.332428,274.431061 
	C434.996155,277.916809 432.885315,281.593964 431.061493,285.374146 
	C427.665649,292.412476 424.546783,299.584442 420.618530,308.228149 
	C415.820953,293.825623 411.202728,280.589600 407.041718,267.211365 
	C404.882935,260.270630 403.533020,253.078293 401.974396,245.259537 
	C401.657715,244.147247 401.341003,243.034958 400.992767,241.136292 
	C400.934570,240.092087 400.876373,239.047867 400.927124,237.466705 
	C400.631012,237.272293 400.334930,237.077881 399.998840,236.254410 
	C399.941071,235.840851 399.883301,235.427292 399.979889,234.240540 
M121.214386,216.755707 
	C125.459160,220.677155 129.703934,224.598602 134.975174,229.468323 
	C132.658661,228.870422 131.577759,228.763016 130.652725,228.325790 
	C122.530838,224.486908 114.012009,223.238586 105.029160,222.857178 
	C90.353020,222.233994 73.622429,234.695480 68.687927,248.881546 
	C63.950306,262.501648 61.969166,276.266388 63.841427,290.817657 
	C66.107246,308.427643 73.104050,323.764191 83.123108,338.497864 
	C83.412109,338.681213 83.701103,338.864563 84.233055,339.708008 
	C84.485344,340.239136 84.737640,340.770294 84.989922,341.301392 
	C84.333405,341.521057 83.676888,341.740723 82.623734,341.255646 
	C79.416611,340.893555 76.209488,340.531464 72.503922,340.030304 
	C72.336685,340.072540 72.169449,340.114777 71.266068,339.990204 
	C69.676033,339.612976 68.085999,339.235748 66.495956,338.858521 
	C66.338600,339.185272 66.181252,339.512024 66.023895,339.838776 
	C67.664391,340.933533 69.304878,342.028290 71.209709,343.745758 
	C73.921638,346.178253 76.382271,348.992065 79.390640,350.974762 
	C90.234253,358.121277 100.995743,365.458069 112.279678,371.856354 
	C132.168777,383.134094 153.942886,389.776917 175.867096,395.731049 
	C184.282028,398.016357 193.039108,399.041809 201.640274,400.641357 
	C201.884338,400.109528 202.128387,399.577667 202.372452,399.045807 
	C201.499557,398.162018 200.776138,397.002808 199.731354,396.435791 
	C183.943878,387.867767 168.761627,378.475616 154.460464,367.473755 
	C136.952255,354.004639 121.916710,338.411255 109.693077,320.118011 
	C106.063309,314.685883 103.385002,308.617981 100.147804,302.613373 
	C120.315323,304.505493 139.480484,306.303589 158.645630,308.101685 
	C155.515610,304.266754 152.083282,301.622589 148.609177,299.034515 
	C132.988571,287.397827 115.793610,278.592957 97.690735,271.653412 
	C93.680862,270.116302 93.280815,267.781433 94.101097,264.980347 
	C96.034721,258.377350 99.225601,252.207245 106.818176,251.017990 
	C112.439354,250.137512 118.438812,249.525253 123.952667,250.531296 
	C137.470093,252.997696 150.067581,258.401062 161.382675,266.194092 
	C165.547256,269.062408 166.470596,267.174927 168.355789,264.103149 
	C173.112793,256.351868 178.063629,248.710495 183.206924,241.210281 
	C184.997391,238.599319 184.185013,237.033417 182.461868,235.040756 
	C171.084625,221.884155 158.843262,209.617264 144.740860,199.388611 
	C134.807281,192.183670 124.213379,186.077057 111.569145,182.117523 
	C114.871346,187.904785 117.595726,193.017029 120.650650,197.923462 
	C122.977303,201.660217 125.801727,205.083801 128.240555,208.755737 
	C129.092743,210.038803 129.454636,211.647491 129.357758,213.045670 
	C128.904449,213.096039 128.451141,213.146423 127.558228,213.034363 
	C127.558228,213.034363 127.094017,212.969925 126.840820,212.372620 
	C126.225060,212.312622 125.609299,212.252609 124.356400,212.034515 
	C123.920059,212.005524 123.483711,211.976532 122.702629,211.267715 
	C120.674355,210.850662 118.646080,210.433624 115.036301,209.691391 
	C117.646805,212.520020 119.303375,214.314987 121.214386,216.755707 
M590.926147,397.969452 
	C596.447815,396.617065 602.010742,395.412537 607.483948,393.886414 
	C630.178406,387.558350 652.686035,380.526672 673.735046,369.842804 
	C691.853210,360.646545 709.430481,350.384491 727.246948,340.593689 
	C726.995667,340.045441 726.744385,339.497192 726.493103,338.948944 
	C717.719482,340.181244 708.945862,341.413574 699.176453,342.785736 
	C700.996887,340.345703 702.157410,338.228607 703.824585,336.644806 
	C716.470703,324.631409 726.417175,310.754608 732.145020,294.234650 
	C738.545959,275.773468 738.200012,257.694183 726.897766,240.899078 
	C720.499512,231.391373 704.141479,224.627167 694.487915,227.904907 
	C686.339722,230.671524 678.133057,233.266022 670.257202,235.837158 
	C675.050781,229.609482 680.256042,222.846939 685.461243,216.084396 
	C685.105469,215.709076 684.749695,215.333755 684.393860,214.958435 
	C679.516479,217.394455 674.639099,219.830475 668.404053,222.944565 
	C675.667297,210.133911 684.913330,200.260834 689.364685,186.189957 
	C661.800354,196.985657 641.407776,215.393600 621.993469,235.148087 
	C625.605225,238.844284 629.107178,242.180862 632.326660,245.770767 
	C640.819641,255.240982 645.231750,266.801941 643.684021,279.068573 
	C641.885193,293.324646 638.239624,307.455750 634.170044,321.280365 
	C631.329651,330.929504 626.429016,339.972198 622.081238,350.145325 
	C615.492798,334.942963 609.503418,321.122803 603.198181,306.573914 
	C628.083130,295.093506 640.661255,275.851837 625.233643,250.138504 
	C612.302979,228.586960 590.808228,232.612213 569.578674,242.719513 
	C573.898254,235.583923 577.536316,229.574112 581.174377,223.564301 
	C580.868896,223.212646 580.563477,222.860992 580.258057,222.509338 
	C576.611267,224.296524 572.964539,226.083725 569.252014,227.903152 
	C573.687073,216.619232 577.977661,205.702881 582.268311,194.786530 
	C561.231262,205.849991 547.555908,223.226242 536.610168,243.083389 
	C536.181946,243.860168 536.332703,245.369080 536.816528,246.174896 
	C547.635742,264.194275 552.581970,283.418121 550.165588,304.566345 
	C548.631470,317.993347 545.545776,330.715790 538.126404,341.960114 
	C540.325256,345.387238 542.409180,348.685303 544.546936,351.948120 
	C545.802307,353.864197 547.044556,355.205780 549.929077,355.089081 
	C558.399719,354.746307 566.893066,354.966919 575.638733,354.966919 
	C574.356934,351.967316 573.017456,349.215668 571.986877,346.352905 
	C568.094360,335.540588 569.777039,324.354614 570.140015,313.295135 
	C570.188232,311.827179 572.035217,309.514862 573.426331,309.185303 
	C576.191101,308.530304 579.081360,308.511993 581.114563,311.843170 
	C586.198608,320.172607 591.448242,328.425079 597.089783,336.383484 
	C602.842651,344.498901 609.142578,352.226593 615.718872,360.796387 
	C607.432068,370.096375 599.320984,379.371918 590.996521,388.451904 
	C587.898804,391.830811 584.302185,394.752319 580.231812,397.994720 
	C578.176941,399.458405 576.122070,400.922089 574.067200,402.385773 
	C574.144470,402.541260 574.221741,402.696747 574.299011,402.852234 
	C578.222473,401.571899 582.145996,400.291565 586.540405,398.961731 
	C586.540405,398.961731 586.991394,398.817291 587.688232,398.987762 
	C588.489868,398.666840 589.291565,398.345947 590.926147,397.969452 
M520.077515,299.445007 
	C519.054504,305.520386 518.682129,311.797363 516.875183,317.629883 
	C512.917358,330.404816 501.686035,339.419647 490.571655,338.928345 
	C478.157623,338.379578 467.786102,331.018738 464.003693,319.893799 
	C461.840302,313.530731 460.715729,306.814423 459.033966,299.888641 
	C458.408081,300.552734 457.435303,301.178497 457.046631,302.061401 
	C453.856171,309.308990 450.728607,316.585571 447.708313,323.905457 
	C447.249298,325.017914 447.041992,326.524261 447.391876,327.636475 
	C451.755127,341.506256 460.241547,351.452789 474.221710,356.630432 
	C491.459167,363.014404 507.060181,359.931030 520.211670,347.828308 
	C533.942444,335.192505 540.207764,318.498077 540.779358,300.033325 
	C541.228394,285.524048 538.265442,271.561249 530.954285,258.713379 
	C521.277405,241.708252 501.321045,232.582062 482.472107,237.167007 
	C472.111542,239.687195 463.200562,244.803711 456.571198,253.860565 
	C461.705933,258.303711 466.478699,262.433624 471.251465,266.563538 
	C470.779633,267.457489 471.438965,266.972656 471.923065,266.351318 
	C483.833710,251.063766 506.638916,253.850128 515.687378,273.170898 
	C519.445007,281.194305 520.564453,289.696228 520.077515,299.445007 
z"/>
<path fill="#FDFAF9" opacity="1.000000" stroke="none" 
	d="
M586.991394,398.817291 
	C586.991394,398.817291 586.540405,398.961731 585.903320,398.962646 
	C583.821838,398.603210 582.377441,398.242828 580.933105,397.882446 
	C584.302185,394.752319 587.898804,391.830811 590.996521,388.451904 
	C599.320984,379.371918 607.432068,370.096375 615.718872,360.796387 
	C609.142578,352.226593 602.842651,344.498901 597.089783,336.383484 
	C591.448242,328.425079 586.198608,320.172607 581.114563,311.843170 
	C579.081360,308.511993 576.191101,308.530304 573.426331,309.185303 
	C572.035217,309.514862 570.188232,311.827179 570.140015,313.295135 
	C569.777039,324.354614 568.094360,335.540588 571.986877,346.352905 
	C573.017456,349.215668 574.356934,351.967316 575.638733,354.966919 
	C566.893066,354.966919 558.399719,354.746307 549.929077,355.089081 
	C547.044556,355.205780 545.802307,353.864197 544.546936,351.948120 
	C542.409180,348.685303 540.325256,345.387238 538.126404,341.960114 
	C545.545776,330.715790 548.631470,317.993347 550.165588,304.566345 
	C552.581970,283.418121 547.635742,264.194275 536.816528,246.174896 
	C536.332703,245.369080 536.181946,243.860168 536.610168,243.083389 
	C547.555908,223.226242 561.231262,205.849991 582.268311,194.786530 
	C577.977661,205.702881 573.687073,216.619232 569.252014,227.903152 
	C572.964539,226.083725 576.611267,224.296524 580.258057,222.509338 
	C580.563477,222.860992 580.868896,223.212646 581.174377,223.564301 
	C577.536316,229.574112 573.898254,235.583923 569.578674,242.719513 
	C590.808228,232.612213 612.302979,228.586960 625.233643,250.138504 
	C640.661255,275.851837 628.083130,295.093506 603.198181,306.573914 
	C609.503418,321.122803 615.492798,334.942963 622.081238,350.145325 
	C626.429016,339.972198 631.329651,330.929504 634.170044,321.280365 
	C638.239624,307.455750 641.885193,293.324646 643.684021,279.068573 
	C645.231750,266.801941 640.819641,255.240982 632.326660,245.770767 
	C629.107178,242.180862 625.605225,238.844284 621.993469,235.148087 
	C641.407776,215.393600 661.800354,196.985657 689.364685,186.189957 
	C684.913330,200.260834 675.667297,210.133911 668.404053,222.944565 
	C674.639099,219.830475 679.516479,217.394455 684.393860,214.958435 
	C684.749695,215.333755 685.105469,215.709076 685.461243,216.084396 
	C680.256042,222.846939 675.050781,229.609482 670.257202,235.837158 
	C678.133057,233.266022 686.339722,230.671524 694.487915,227.904907 
	C704.141479,224.627167 720.499512,231.391373 726.897766,240.899078 
	C738.200012,257.694183 738.545959,275.773468 732.145020,294.234650 
	C726.417175,310.754608 716.470703,324.631409 703.824585,336.644806 
	C702.157410,338.228607 700.996887,340.345703 699.176453,342.785736 
	C708.945862,341.413574 717.719482,340.181244 726.493103,338.948944 
	C726.744385,339.497192 726.995667,340.045441 727.246948,340.593689 
	C709.430481,350.384491 691.853210,360.646545 673.735046,369.842804 
	C652.686035,380.526672 630.178406,387.558350 607.483948,393.886414 
	C602.010742,395.412537 596.447815,396.617065 590.173340,397.980560 
	C588.610840,398.266876 587.801147,398.542084 586.991394,398.817291 
M666.951599,294.363007 
	C666.661133,295.122070 666.302795,295.862640 666.090271,296.642975 
	C662.354431,310.364380 658.838135,324.150299 654.805603,337.783600 
	C653.386230,342.582214 650.711670,347.009613 648.610291,351.606537 
	C648.969666,351.882019 649.329102,352.157532 649.688538,352.433044 
	C652.885742,350.309357 656.127625,348.249634 659.272461,346.051025 
	C674.053406,335.717285 687.767517,324.171265 698.191528,309.298859 
	C707.316467,296.279877 713.982483,282.341766 711.041321,265.666412 
	C709.669922,257.891022 703.360291,250.462280 694.973511,250.783783 
	C683.562561,251.221252 672.580444,260.225433 670.033325,272.666595 
	C668.629211,279.525269 667.964539,286.535339 666.951599,294.363007 
M582.276367,292.015839 
	C590.131104,291.308899 597.909058,290.090668 604.263855,284.991821 
	C610.277283,280.166901 613.188416,273.945709 611.044495,266.051361 
	C609.342712,259.785065 605.762756,255.369720 599.259155,253.593414 
	C589.852356,251.024155 576.369751,255.460007 569.780090,261.798553 
	C569.001038,262.547913 568.416504,264.088135 568.577271,265.133179 
	C569.936218,273.965820 571.489441,282.768555 573.058533,292.017761 
	C575.404785,292.017761 578.369263,292.017761 582.276367,292.015839 
M569.086670,242.391083 
	C569.211548,242.800964 569.336426,243.210861 569.461365,243.620743 
	C569.673828,243.511200 570.076660,243.381134 570.067444,243.295517 
	C570.014893,242.807877 569.864014,242.330841 569.086670,242.391083 
M668.591553,222.566864 
	C668.162170,222.878006 667.732727,223.189148 667.303345,223.500290 
	C667.886841,223.421402 668.470398,223.342514 668.591553,222.566864 
z"/>
<path fill="#FDFBFA" opacity="1.000000" stroke="none" 
	d="
M83.020370,341.960388 
	C83.676888,341.740723 84.333405,341.521057 84.989929,341.301392 
	C84.737640,340.770294 84.485344,340.239136 84.067093,339.149902 
	C83.757721,338.298279 83.533432,338.093170 83.228264,337.976532 
	C73.104050,323.764191 66.107246,308.427643 63.841427,290.817657 
	C61.969166,276.266388 63.950306,262.501648 68.687927,248.881546 
	C73.622429,234.695480 90.353020,222.233994 105.029160,222.857178 
	C114.012009,223.238586 122.530838,224.486908 130.652725,228.325790 
	C131.577759,228.763016 132.658661,228.870422 134.975174,229.468323 
	C129.703934,224.598602 125.459160,220.677155 121.105728,216.076080 
	C121.680504,214.246811 122.363945,213.097168 123.047379,211.947525 
	C123.483711,211.976532 123.920059,212.005524 124.873940,212.331146 
	C125.958992,212.741821 126.526505,212.855881 127.094017,212.969925 
	C127.094017,212.969925 127.558228,213.034363 127.972496,213.332733 
	C128.946838,213.745758 129.506912,213.860428 130.447327,214.008789 
	C131.043884,213.656647 131.260117,213.270828 131.476349,212.885010 
	C130.972382,212.900314 130.468399,212.915619 129.952942,212.988190 
	C129.941452,213.045441 130.040436,213.107483 130.040436,213.107483 
	C129.454636,211.647491 129.092743,210.038803 128.240555,208.755737 
	C125.801727,205.083801 122.977303,201.660217 120.650650,197.923462 
	C117.595726,193.017029 114.871346,187.904785 111.569145,182.117523 
	C124.213379,186.077057 134.807281,192.183670 144.740860,199.388611 
	C158.843262,209.617264 171.084625,221.884155 182.461868,235.040756 
	C184.185013,237.033417 184.997391,238.599319 183.206924,241.210281 
	C178.063629,248.710495 173.112793,256.351868 168.355789,264.103149 
	C166.470596,267.174927 165.547256,269.062408 161.382675,266.194092 
	C150.067581,258.401062 137.470093,252.997696 123.952667,250.531296 
	C118.438812,249.525253 112.439354,250.137512 106.818176,251.017990 
	C99.225601,252.207245 96.034721,258.377350 94.101097,264.980347 
	C93.280815,267.781433 93.680862,270.116302 97.690735,271.653412 
	C115.793610,278.592957 132.988571,287.397827 148.609177,299.034515 
	C152.083282,301.622589 155.515610,304.266754 158.645630,308.101685 
	C139.480484,306.303589 120.315323,304.505493 100.147804,302.613373 
	C103.385002,308.617981 106.063309,314.685883 109.693077,320.118011 
	C121.916710,338.411255 136.952255,354.004639 154.460464,367.473755 
	C168.761627,378.475616 183.943878,387.867767 199.731354,396.435791 
	C200.776138,397.002808 201.499557,398.162018 202.372452,399.045807 
	C202.128387,399.577667 201.884338,400.109528 201.640274,400.641357 
	C193.039108,399.041809 184.282028,398.016357 175.867096,395.731049 
	C153.942886,389.776917 132.168777,383.134094 112.279678,371.856354 
	C100.995743,365.458069 90.234253,358.121277 79.390640,350.974762 
	C76.382271,348.992065 73.921638,346.178253 71.106369,343.116302 
	C71.336082,341.710236 71.669144,340.933655 72.002205,340.157043 
	C72.169449,340.114777 72.336685,340.072540 73.003815,340.361420 
	C76.675926,341.115173 79.848152,341.537811 83.020370,341.960388 
z"/>
<path fill="#FDFAF9" opacity="1.000000" stroke="none" 
	d="
M401.817688,245.999603 
	C403.533020,253.078293 404.882935,260.270630 407.041718,267.211365 
	C411.202728,280.589600 415.820953,293.825623 420.618530,308.228149 
	C424.546783,299.584442 427.665649,292.412476 431.061493,285.374146 
	C432.885315,281.593964 434.996155,277.916809 437.332428,274.431061 
	C439.046844,271.873199 438.521484,270.067841 437.222992,267.452057 
	C433.848358,260.653992 431.067902,253.560089 428.102875,246.561981 
	C427.950592,246.202637 428.288330,245.635696 428.539764,244.556870 
	C431.754059,246.587677 435.086487,248.091049 437.658630,250.430359 
	C445.572845,257.628082 453.179626,265.163147 460.943817,272.527100 
	C463.019897,274.496094 463.795654,276.210999 461.644043,278.863129 
	C449.466888,293.872864 441.212128,310.822784 436.981049,329.714050 
	C434.203949,342.113373 434.202576,354.597900 435.457489,367.166168 
	C435.565460,368.247406 434.455200,370.107483 433.496155,370.452332 
	C432.547211,370.793457 430.553894,370.043610 429.906677,369.137848 
	C420.631287,356.157013 411.852112,342.854523 406.036743,327.883026 
	C403.494263,321.337433 401.343018,314.639862 399.326843,308.901459 
	C394.961975,319.073578 390.864502,330.234741 385.473938,340.731873 
	C380.071625,351.251801 373.378754,361.108948 367.150726,371.423523 
	C363.101166,369.393860 362.417725,367.523193 362.765533,363.453033 
	C364.276611,345.770020 362.030701,328.426544 355.430634,311.806152 
	C350.351532,299.015778 343.590942,287.220245 334.180237,276.265228 
	C344.170349,264.064392 354.842407,252.467819 369.150787,244.921524 
	C369.576447,245.195816 370.002136,245.470108 370.427795,245.744400 
	C367.075897,253.179993 363.829590,260.666016 360.312744,268.022766 
	C359.142059,270.471741 359.168915,272.016327 360.630768,274.621277 
	C366.470459,285.027130 371.695984,295.777618 377.614410,307.307770 
	C382.097321,293.519806 386.735321,279.823395 390.964233,266.001770 
	C392.994019,259.367645 394.250488,252.496979 396.331329,245.150116 
	C397.204773,242.703384 397.489197,240.805099 398.040894,238.987915 
	C398.459320,237.609619 399.218140,236.334671 399.825562,235.013748 
	C399.883301,235.427292 399.941071,235.840851 400.079559,236.797607 
	C400.308075,237.632690 400.527374,237.853638 400.818176,238.003662 
	C400.876373,239.047867 400.934570,240.092087 400.992798,241.892136 
	C401.267761,243.765182 401.542725,244.882401 401.817688,245.999603 
z"/>
<path fill="#FDF9F8" opacity="1.000000" stroke="none" 
	d="
M343.021484,244.092010 
	C337.709625,252.891968 332.397766,261.691925 327.271515,270.184418 
	C321.134094,265.751526 316.054199,261.656952 310.532227,258.286743 
	C308.043854,256.768066 304.475006,255.691589 301.756653,256.230774 
	C298.699860,256.837097 294.409515,258.962524 293.626007,261.387024 
	C292.581787,264.618225 293.485352,269.267639 295.184204,272.431610 
	C298.669220,278.922058 305.838013,281.024323 312.026001,284.133362 
	C325.827332,291.067688 337.481476,300.683136 339.612457,316.582520 
	C342.205383,335.928436 335.258423,353.218536 311.741180,358.797119 
	C300.033600,361.574310 288.547211,360.029327 278.055267,353.914948 
	C268.015076,348.063843 263.954773,338.170929 263.194855,327.382477 
	C261.994965,310.348450 262.481415,310.317932 276.536102,300.274384 
	C278.239380,299.057251 279.897186,297.776459 281.736847,296.405304 
	C281.413361,300.500061 281.272095,304.367859 280.773621,308.189056 
	C279.518127,317.813446 280.821106,326.614105 288.095520,333.800293 
	C294.719391,340.343811 306.337006,340.562164 313.000519,334.817017 
	C320.923676,327.985840 320.895142,315.879150 314.145325,308.530334 
	C307.802948,301.625092 300.086487,296.681061 291.561798,293.299591 
	C281.046509,289.128571 272.790924,278.555786 272.795807,265.050781 
	C272.800812,251.250473 280.618469,240.316544 293.753082,236.911911 
	C302.670715,234.600372 311.675385,235.286041 319.043640,240.964340 
	C324.604767,245.249985 329.093414,245.968643 334.830963,241.072632 
	C335.704590,240.776321 335.919464,240.551559 336.039551,240.236176 
	C336.039551,240.236176 336.470917,240.050156 336.939026,239.983475 
	C337.712463,239.774734 337.921051,239.544907 338.032898,239.227310 
	C338.032898,239.227310 338.453766,239.039062 338.996735,239.006592 
	C340.021606,238.633926 340.503540,238.293732 340.985474,237.953552 
	C340.985474,237.953552 341.001862,237.999649 341.341248,238.010529 
	C342.811340,238.364517 343.942108,238.707626 345.072815,239.050751 
	C345.033234,239.482590 344.993652,239.914413 344.650146,240.774841 
	C344.095734,241.435593 343.983459,241.721939 344.009399,242.062469 
	C344.009399,242.062469 343.954224,242.528091 343.665100,242.876770 
	C343.131073,243.462448 343.012909,243.751312 343.021484,244.092010 
z"/>
<path fill="#FDFAF9" opacity="1.000000" stroke="none" 
	d="
M215.021973,244.089783 
	C215.021973,244.089783 214.969391,244.550751 214.690460,244.902954 
	C214.169174,245.487549 214.043488,245.771576 214.034485,246.107224 
	C212.310333,249.868439 210.586182,253.629639 208.527176,258.121307 
	C216.779327,254.249100 224.339508,250.701584 231.899704,247.154068 
	C227.861710,259.861084 217.134201,266.667450 210.040848,276.654877 
	C214.037369,276.369019 217.750793,276.103455 221.464218,275.837860 
	C221.576111,276.138855 221.688004,276.439819 221.799896,276.740784 
	C216.582733,280.120758 211.397171,283.550964 206.136078,286.861115 
	C203.156998,288.735474 201.620453,290.347137 202.566391,294.720245 
	C205.256668,307.157684 207.704788,319.771484 204.043716,332.566132 
	C203.521133,334.392456 203.971344,336.497162 203.971344,338.992371 
	C214.248154,338.992371 224.352966,339.049438 234.454315,338.888824 
	C235.302383,338.875336 236.988220,336.970673 236.836502,336.666077 
	C233.331268,329.628723 238.769485,326.943207 242.986511,323.659882 
	C246.319763,321.064667 249.662354,318.481445 253.993958,315.122833 
	C252.523956,330.901825 256.521881,344.374695 265.142670,357.127930 
	C233.962448,357.127930 203.700836,357.127930 174.050278,357.127930 
	C176.625748,350.119904 179.949158,342.851776 181.966125,335.237579 
	C186.945465,316.440582 184.280579,298.251434 175.457214,281.098358 
	C173.503235,277.299774 174.192383,274.803680 175.894012,271.485931 
	C183.915909,255.845169 194.663345,242.325027 207.960220,230.078491 
	C210.086487,228.292938 211.529739,226.629028 212.972977,224.965103 
	C212.972977,224.965103 212.999329,225.001251 213.218155,224.899475 
	C213.617599,224.519028 213.798203,224.240356 213.978821,223.961700 
	C213.978821,223.961700 214.000336,224.000824 214.218628,223.899689 
	C214.617416,223.520233 214.797913,223.241928 214.978424,222.963608 
	C214.978409,222.963608 215.000168,223.000763 215.214890,222.908325 
	C215.726639,222.629715 215.908081,222.364441 215.973969,222.020111 
	C215.973969,222.020111 215.982742,221.978561 216.221863,221.936493 
	C216.739151,221.750626 216.930176,221.530975 217.034058,221.235504 
	C218.146881,220.231201 219.259720,219.226883 221.027740,218.129913 
	C222.811142,218.707443 223.939346,219.377625 225.067566,220.047791 
	C225.033951,220.481339 225.000336,220.914856 224.693237,221.802246 
	C224.174683,222.487045 224.046066,222.770767 224.033890,223.107269 
	C224.007095,223.523468 223.980316,223.939651 223.655823,224.781067 
	C223.103500,225.443619 222.988632,225.735886 223.013535,226.083069 
	C223.013535,226.083069 222.967484,226.546005 222.670380,226.961563 
	C222.248886,227.940125 222.124481,228.503128 222.000092,229.066132 
	C222.000092,229.066132 221.948563,229.525497 221.670380,229.879242 
	C221.145630,230.469055 221.023468,230.757736 221.025711,231.099045 
	C221.025711,231.099045 220.970871,231.555695 220.672852,231.963989 
	C220.258896,232.928513 220.142975,233.484726 220.027054,234.040955 
	C220.027054,234.040955 219.997787,234.002335 219.652618,234.070877 
	C218.886551,235.463577 218.465652,236.787720 218.044739,238.111877 
	C217.389252,239.523285 216.733749,240.934708 215.740433,242.796173 
	C215.158264,243.474411 215.031387,243.755585 215.021973,244.089783 
z"/>
<path fill="#FDF9F8" opacity="1.000000" stroke="none" 
	d="
M520.077515,298.955872 
	C520.564453,289.696228 519.445007,281.194305 515.687378,273.170898 
	C506.638916,253.850128 483.833710,251.063766 471.923065,266.351318 
	C471.438965,266.972656 470.779633,267.457489 471.251465,266.563538 
	C466.478699,262.433624 461.705933,258.303711 456.571198,253.860565 
	C463.200562,244.803711 472.111542,239.687195 482.472107,237.167007 
	C501.321045,232.582062 521.277405,241.708252 530.954285,258.713379 
	C538.265442,271.561249 541.228394,285.524048 540.779358,300.033325 
	C540.207764,318.498077 533.942444,335.192505 520.211670,347.828308 
	C507.060181,359.931030 491.459167,363.014404 474.221710,356.630432 
	C460.241547,351.452789 451.755127,341.506256 447.391876,327.636475 
	C447.041992,326.524261 447.249298,325.017914 447.708313,323.905457 
	C450.728607,316.585571 453.856171,309.308990 457.046631,302.061401 
	C457.435303,301.178497 458.408081,300.552734 459.033966,299.888641 
	C460.715729,306.814423 461.840302,313.530731 464.003693,319.893799 
	C467.786102,331.018738 478.157623,338.379578 490.571655,338.928345 
	C501.686035,339.419647 512.917358,330.404816 516.875183,317.629883 
	C518.682129,311.797363 519.054504,305.520386 520.077515,298.955872 
z"/>
<path fill="#FFEFEA" opacity="1.000000" stroke="none" 
	d="
M399.902710,234.627136 
	C399.218140,236.334671 398.459320,237.609619 398.040894,238.987915 
	C397.489197,240.805099 397.204773,242.703384 396.492859,244.780014 
	C396.721649,239.771500 397.263031,234.549789 397.804443,229.328079 
	C398.082062,229.319641 398.359711,229.311218 398.637329,229.302780 
	C399.084839,230.948700 399.532379,232.594620 399.902710,234.627136 
z"/>
<path fill="#FCE6DF" opacity="1.000000" stroke="none" 
	d="
M122.875000,211.607620 
	C122.363945,213.097168 121.680504,214.246811 120.978500,215.753204 
	C119.303375,214.314987 117.646805,212.520020 115.036301,209.691391 
	C118.646080,210.433624 120.674355,210.850662 122.875000,211.607620 
z"/>
<path fill="#FBDDD7" opacity="1.000000" stroke="none" 
	d="
M580.582458,397.938599 
	C582.377441,398.242828 583.821838,398.603210 585.667847,398.987366 
	C582.145996,400.291565 578.222473,401.571899 574.299011,402.852234 
	C574.221741,402.696747 574.144470,402.541260 574.067200,402.385773 
	C576.122070,400.922089 578.176941,399.458405 580.582458,397.938599 
z"/>
<path fill="#FDE3DF" opacity="1.000000" stroke="none" 
	d="
M225.404755,219.883118 
	C223.939346,219.377625 222.811142,218.707443 221.331848,218.021896 
	C222.673935,216.636475 224.367142,215.266418 227.256012,212.928909 
	C226.557297,216.062164 226.149628,217.890305 225.404755,219.883118 
z"/>
<path fill="#FAE6E1" opacity="1.000000" stroke="none" 
	d="
M82.822052,341.608032 
	C79.848152,341.537811 76.675926,341.115173 73.253036,340.430969 
	C76.209488,340.531464 79.416611,340.893555 82.822052,341.608032 
z"/>
<path fill="#FAE6E1" opacity="1.000000" stroke="none" 
	d="
M71.634140,340.073608 
	C71.669144,340.933655 71.336082,341.710236 70.974197,342.804932 
	C69.304878,342.028290 67.664391,340.933533 66.023895,339.838776 
	C66.181252,339.512024 66.338600,339.185272 66.495956,338.858521 
	C68.085999,339.235748 69.676033,339.612976 71.634140,340.073608 
z"/>
<path fill="#FCE3D9" opacity="1.000000" stroke="none" 
	d="
M345.383636,238.915894 
	C343.942108,238.707626 342.811340,238.364517 341.320007,237.998352 
	C342.716492,237.047043 344.473541,236.118759 347.104675,234.728683 
	C346.439636,236.639648 346.067017,237.710342 345.383636,238.915894 
z"/>
<path fill="#FEEBE0" opacity="1.000000" stroke="none" 
	d="
M212.661240,225.069946 
	C211.529739,226.629028 210.086487,228.292938 208.268784,229.953094 
	C209.379379,228.357819 210.864441,226.766312 212.661240,225.069946 
z"/>
<path fill="#FFE1DB" opacity="1.000000" stroke="none" 
	d="
M218.360641,237.967834 
	C218.465652,236.787720 218.886551,235.463577 219.674545,234.080933 
	C219.586594,235.289566 219.131561,236.556671 218.360641,237.967834 
z"/>
<path fill="#FFEFEA" opacity="1.000000" stroke="none" 
	d="
M401.896057,245.629578 
	C401.542725,244.882401 401.267761,243.765182 401.008545,242.285324 
	C401.341003,243.034958 401.657715,244.147247 401.896057,245.629578 
z"/>
<path fill="#FBDDD7" opacity="1.000000" stroke="none" 
	d="
M587.339844,398.902527 
	C587.801147,398.542084 588.610840,398.266876 589.756897,398.008362 
	C589.291565,398.345947 588.489868,398.666840 587.339844,398.902527 
z"/>
<path fill="#FCE6DF" opacity="1.000000" stroke="none" 
	d="
M126.967422,212.671265 
	C126.526505,212.855881 125.958992,212.741821 125.192505,212.410187 
	C125.609299,212.252609 126.225060,212.312622 126.967422,212.671265 
z"/>
<path fill="#FCE3D9" opacity="1.000000" stroke="none" 
	d="
M340.668976,237.985504 
	C340.503540,238.293732 340.021606,238.633926 339.225159,238.975464 
	C339.391235,238.657013 339.871857,238.337250 340.668976,237.985504 
z"/>
<path fill="#FCE6DF" opacity="1.000000" stroke="none" 
	d="
M130.066986,213.975098 
	C129.506912,213.860428 128.946838,213.745758 128.192291,213.413940 
	C128.451141,213.146423 128.904449,213.096039 129.699097,213.076569 
	C130.040436,213.107483 129.941452,213.045441 129.945129,213.252472 
	C129.988190,213.631363 130.027588,213.803238 130.066986,213.975098 
z"/>
<path fill="#FFE1DB" opacity="1.000000" stroke="none" 
	d="
M222.293716,228.936432 
	C222.124481,228.503128 222.248886,227.940125 222.594147,227.181335 
	C222.739120,227.592621 222.663239,228.199677 222.293716,228.936432 
z"/>
<path fill="#FFE1DB" opacity="1.000000" stroke="none" 
	d="
M220.323578,233.924011 
	C220.142975,233.484726 220.258896,232.928513 220.594849,232.180328 
	C220.749954,232.594604 220.685028,233.200851 220.323578,233.924011 
z"/>
<path fill="#FEE7E2" opacity="1.000000" stroke="none" 
	d="
M214.289352,246.013138 
	C214.043488,245.771576 214.169174,245.487549 214.607208,245.119476 
	C214.716690,245.295563 214.630463,245.607300 214.289352,246.013138 
z"/>
<path fill="#FEEBE0" opacity="1.000000" stroke="none" 
	d="
M216.782379,221.190765 
	C216.930176,221.530975 216.739151,221.750626 216.243103,221.935944 
	C216.193695,221.700333 216.362183,221.423187 216.782379,221.190765 
z"/>
<path fill="#FEEBE0" opacity="1.000000" stroke="none" 
	d="
M215.715485,222.059937 
	C215.908081,222.364441 215.726639,222.629715 215.196365,222.897308 
	C215.127747,222.685745 215.292374,222.392746 215.715485,222.059937 
z"/>
<path fill="#FAE6E1" opacity="1.000000" stroke="none" 
	d="
M83.175690,338.237183 
	C83.533432,338.093170 83.757721,338.298279 83.945618,338.819855 
	C83.701103,338.864563 83.412109,338.681213 83.175690,338.237183 
z"/>
<path fill="#FDE3DF" opacity="1.000000" stroke="none" 
	d="
M224.294235,223.018219 
	C224.046066,222.770767 224.174683,222.487045 224.615463,222.119324 
	C224.725647,222.298065 224.640121,222.613617 224.294235,223.018219 
z"/>
<path fill="#FEEBE0" opacity="1.000000" stroke="none" 
	d="
M214.721100,223.026932 
	C214.797913,223.241928 214.617416,223.520233 214.198975,223.888992 
	C214.128616,223.683060 214.296204,223.386658 214.721100,223.026932 
z"/>
<path fill="#FEEBE0" opacity="1.000000" stroke="none" 
	d="
M213.721466,224.025452 
	C213.798203,224.240356 213.617599,224.519028 213.198761,224.888107 
	C213.128403,224.682098 213.296265,224.385666 213.721466,224.025452 
z"/>
<path fill="#FFE1DB" opacity="1.000000" stroke="none" 
	d="
M223.268005,225.988464 
	C222.988632,225.735886 223.103500,225.443619 223.565826,225.080719 
	C223.689850,225.268066 223.606155,225.580963 223.268005,225.988464 
z"/>
<path fill="#FCE3D9" opacity="1.000000" stroke="none" 
	d="
M343.274597,243.995056 
	C343.012909,243.751312 343.131073,243.462448 343.576874,243.093964 
	C343.694427,243.274353 343.611053,243.586212 343.274597,243.995056 
z"/>
<path fill="#FEE7E2" opacity="1.000000" stroke="none" 
	d="
M215.281494,244.004303 
	C215.031387,243.755585 215.158264,243.474411 215.598495,243.113434 
	C215.709930,243.293365 215.625473,243.606079 215.281494,244.004303 
z"/>
<path fill="#FCE3D9" opacity="1.000000" stroke="none" 
	d="
M344.257294,241.971115 
	C343.983459,241.721939 344.095734,241.435593 344.552612,241.085388 
	C344.674408,241.271484 344.589783,241.575623 344.257294,241.971115 
z"/>
<path fill="#FCE3D9" opacity="1.000000" stroke="none" 
	d="
M335.777374,240.183777 
	C335.919464,240.551559 335.704590,240.776321 335.159424,240.947754 
	C335.121033,240.700500 335.318115,240.415939 335.777374,240.183777 
z"/>
<path fill="#FCE3D9" opacity="1.000000" stroke="none" 
	d="
M337.770905,239.179489 
	C337.921051,239.544907 337.712463,239.774734 337.172058,239.954132 
	C337.127625,239.704865 337.318268,239.418274 337.770905,239.179489 
z"/>
<path fill="#FFE1DB" opacity="1.000000" stroke="none" 
	d="
M221.286926,231.006607 
	C221.023468,230.757736 221.145630,230.469055 221.590546,230.096146 
	C221.708664,230.277588 221.628403,230.595871 221.286926,231.006607 
z"/>
<path fill="#FFEFEA" opacity="1.000000" stroke="none" 
	d="
M400.872650,237.735184 
	C400.527374,237.853638 400.308075,237.632690 400.099548,237.112152 
	C400.334930,237.077881 400.631012,237.272293 400.872650,237.735184 
z"/>
<path fill="#000000" opacity="1.000000" stroke="none" 
	d="
M666.959045,293.920105 
	C667.964539,286.535339 668.629211,279.525269 670.033325,272.666595 
	C672.580444,260.225433 683.562561,251.221252 694.973511,250.783783 
	C703.360291,250.462280 709.669922,257.891022 711.041321,265.666412 
	C713.982483,282.341766 707.316467,296.279877 698.191528,309.298859 
	C687.767517,324.171265 674.053406,335.717285 659.272461,346.051025 
	C656.127625,348.249634 652.885742,350.309357 649.688538,352.433044 
	C649.329102,352.157532 648.969666,351.882019 648.610291,351.606537 
	C650.711670,347.009613 653.386230,342.582214 654.805603,337.783600 
	C658.838135,324.150299 662.354431,310.364380 666.090271,296.642975 
	C666.302795,295.862640 666.661133,295.122070 666.959045,293.920105 
z"/>
<path fill="#000000" opacity="1.000000" stroke="none" 
	d="
M581.805054,292.016785 
	C578.369263,292.017761 575.404785,292.017761 573.058533,292.017761 
	C571.489441,282.768555 569.936218,273.965820 568.577271,265.133179 
	C568.416504,264.088135 569.001038,262.547913 569.780090,261.798553 
	C576.369751,255.460007 589.852356,251.024155 599.259155,253.593414 
	C605.762756,255.369720 609.342712,259.785065 611.044495,266.051361 
	C613.188416,273.945709 610.277283,280.166901 604.263855,284.991821 
	C597.909058,290.090668 590.131104,291.308899 581.805054,292.016785 
z"/>
<path fill="#000000" opacity="1.000000" stroke="none" 
	d="
M569.416626,242.120636 
	C569.864014,242.330841 570.014893,242.807877 570.067444,243.295517 
	C570.076660,243.381134 569.673828,243.511200 569.461365,243.620758 
	C569.336426,243.210861 569.211548,242.800964 569.416626,242.120636 
z"/>
<path fill="#000000" opacity="1.000000" stroke="none" 
	d="
M668.822754,222.915253 
	C668.470398,223.342514 667.886841,223.421402 667.303345,223.500290 
	C667.732727,223.189148 668.162170,222.878006 668.822754,222.915253 
z"/>
<path fill="#000000" opacity="1.000000" stroke="none" 
	d="
M130.447327,214.008789 
	C130.027588,213.803238 129.988190,213.631363 129.956604,213.195221 
	C130.468399,212.915619 130.972382,212.900314 131.476349,212.885010 
	C131.260117,213.270828 131.043884,213.656647 130.447327,214.008789 
z"/>
</svg>